<?xml version="1.0" encoding="utf-8"?><!-- Uploaded to: SVG Repo, www.svgrepo.com, Generator: SVG Repo Mixer Tools -->
<svg fill="#000000" width="800px" height="800px" viewBox="0 0 24 24" id="schedule" data-name="Flat Color" xmlns="http://www.w3.org/2000/svg" class="icon flat-color"><path id="primary" d="M20,3H4A2,2,0,0,0,2,5V20a2,2,0,0,0,2,2H15a1,1,0,0,0,.71-.29l6-6A1,1,0,0,0,22,15V5A2,2,0,0,0,20,3Z" style="fill: rgb(0, 0, 0);"></path><path id="secondary" d="M21.71,15.71l-6,6a1,1,0,0,1-.52.27l-1-4.94a1,1,0,0,1,.84-1.19l6.93-1A1,1,0,0,1,21.71,15.71ZM20,3H4A2,2,0,0,0,2,5V8H22V5A2,2,0,0,0,20,3Z" style="fill: rgb(44, 169, 188);"></path><path id="primary-2" data-name="primary" d="M17,6a1,1,0,0,1-1-1V3a1,1,0,0,1,2,0V5A1,1,0,0,1,17,6ZM13,5V3a1,1,0,0,0-2,0V5a1,1,0,0,0,2,0ZM8,5V3A1,1,0,0,0,6,3V5A1,1,0,0,0,8,5Z" style="fill: rgb(0, 0, 0);"></path></svg>